<?xml version="1.0" encoding="utf-8"?>
<!-- Generator: Adobe Illustrator 19.2.1, SVG Export Plug-In . SVG Version: 6.00 Build 0)  -->
<svg version="1.1" id="Layer_2" xmlns="http://www.w3.org/2000/svg" xmlns:xlink="http://www.w3.org/1999/xlink" x="0px" y="0px"
	 viewBox="0 0 80.3 80.3" style="enable-background:new 0 0 80.3 80.3;" xml:space="preserve">
<style type="text/css">
	.st0{fill:#EB6A5C;}
	.st1{fill:#552F2F;}
	.st2{fill:#55AB99;}
	.st3{fill:#2F4555;}
	.st4{fill:#FFFFFF;}
	.st5{fill:#ED6B5A;}
	.st6{fill:#0C2C48;}
	.st7{fill:#F1CC4B;}
	.st8{clip-path:url(#SVGID_2_);}
	.st9{clip-path:url(#SVGID_2_);fill:#F6A09C;}
	.st10{fill:#50646F;}
	.st11{fill:#FCA886;}
	.st12{fill:#EDAB7E;}
	.st13{fill:#332319;}
	.st14{fill:#E07E45;}
	.st15{fill:#FF8F8F;}
	.st16{fill:#A6D1D9;}
	.st17{fill:#628185;}
	.st18{fill:#BABABA;}
	.st19{fill:#698391;}
	.st20{opacity:0.41;fill:#FFFFFF;}
	.st21{fill:#F6A09C;}
	.st22{fill:#FFF3C9;}
	.st23{fill:#2384AB;}
	.st24{fill:#BABFC5;}
	.st25{clip-path:url(#SVGID_4_);}
	.st26{fill:#6EB9E0;}
	.st27{fill:#F8A06D;}
	.st28{fill:#A3B9C4;}
	.st29{fill:#3B4A52;}
	.st30{clip-path:url(#SVGID_6_);}
	.st31{clip-path:url(#SVGID_8_);fill:#F6A09C;}
	.st32{opacity:0.21;fill:#FFFFFF;}
	.st33{clip-path:url(#SVGID_10_);fill:#F6A09C;}
	.st34{clip-path:url(#SVGID_12_);}
	.st35{fill:#FFD3B5;}
	.st36{fill:#BFD9E6;}
	.st37{fill:#798287;}
	.st38{fill:#A4A8AD;}
	.st39{fill:#FFD6BA;}
	.st40{fill:none;stroke:#0C2C48;stroke-width:1.4;stroke-miterlimit:10;}
</style>
<g>
	<g>
		<circle class="st6" cx="40.2" cy="40.2" r="40.2"/>
	</g>
	<g>
		<g>
			<rect x="15.9" y="19.4" class="st4" width="48.5" height="41.5"/>
		</g>
		<g>
			<g>
				<polygon class="st12" points="60.3,30.1 58.1,23.2 55.9,30.1 				"/>
			</g>
			<g>
				<polygon class="st13" points="59,25.9 58.1,23.2 57.3,25.9 				"/>
			</g>
			<g>
				<path class="st14" d="M59.6,29.4c-0.4,0-0.6,0.4-0.7,0.8h-0.1c0-0.5-0.3-0.8-0.7-0.8c-0.4,0-0.6,0.4-0.7,0.8l-0.1,0
					c0-0.5-0.3-0.8-0.7-0.8c-0.4,0-0.6,0.4-0.7,0.8l0,0v25.3c0,0.4,0.3,0.8,0.6,0.8h3.2c0.3,0,0.6-0.3,0.6-0.8V30.2h0
					C60.2,29.7,59.9,29.4,59.6,29.4z"/>
			</g>
			<g>
				<path class="st15" d="M59.7,56.2c0.3,0,0.6-0.3,0.6-0.8v-2.5H56v2.5c0,0.4,0.3,0.8,0.6,0.8"/>
			</g>
			<g>
				<g>
					<rect x="55.8" y="47.6" class="st16" width="4.6" height="5.9"/>
				</g>
				<g>
					<g>
						<rect x="55.8" y="52" class="st17" width="4.6" height="0.4"/>
					</g>
					<g>
						<rect x="55.8" y="50.4" class="st17" width="4.6" height="0.4"/>
					</g>
					<g>
						<rect x="55.8" y="48.8" class="st17" width="4.6" height="0.4"/>
					</g>
				</g>
			</g>
		</g>
		<g>
			<path class="st13" d="M34.7,47.2c-4.4,0-7.9-3.5-7.9-7.9c0-4.4,3.5-7.9,7.9-7.9c4.4,0,7.9,3.5,7.9,7.9
				C42.6,43.7,39.1,47.2,34.7,47.2z M34.7,32.4c-3.8,0-6.9,3.1-6.9,6.9c0,3.8,3.1,6.9,6.9,6.9c3.8,0,6.9-3.1,6.9-6.9
				C41.6,35.5,38.5,32.4,34.7,32.4z"/>
		</g>
		<g>
			<path class="st13" d="M49.9,55.1H35.5V40.7h14.4V55.1z M36.9,53.7h11.6V42.1H36.9V53.7z"/>
		</g>
		<g>
			<path class="st13" d="M45.6,50.1H21.1V25.6h24.5V50.1z M23.1,48.1h20.5V27.6H23.1V48.1z"/>
		</g>
	</g>
</g>
</svg>
